<svg xmlns="http://www.w3.org/2000/svg" width="292" height="290.641" viewBox="0 0 292 290.641">
  <g id="Group_50621" data-name="Group 50621" opacity="0.197">
    <path id="Path_105" data-name="Path 105" d="M227.822,91.426v-.248c24.34-51.382,78.08-71.378,78.6-71.571L306.247,19C231.173,30.142,203.3,90.281,203,90.929l.331.5Z" transform="translate(-186.973 -19)" fill="#29a7df"/>
    <path id="Path_106" data-name="Path 106" d="M229.4,89.94l.276.5H270.4l.069-.29c6.9-30.435,45.4-67.572,45.742-67.916l-.331-.621C253.588,38.889,229.621,89.4,229.4,89.94Z" transform="translate(-176.968 -18.011)" fill="#29a7df"/>
    <path id="Path_107" data-name="Path 107" d="M267.08,86.866h34.806V31.278l-.538-.248c-23.857,23.953-34.475,55.064-34.558,55.4Z" transform="translate(-162.797 -14.44)" fill="#29a7df"/>
    <path id="Path_108" data-name="Path 108" d="M392.6,91.178l.083.248h24.588l.3-.5c-.3-.648-28.215-60.787-103.426-71.929l-.124.607C314.6,19.8,368.284,39.8,392.6,91.178Z" transform="translate(-144.893 -19)" fill="#29a7df"/>
    <path id="Path_109" data-name="Path 109" d="M345.61,90.147v.29H386.3l.345-.5c-.317-.538-24.215-51.023-86.533-68.33l-.386.621C300.1,22.589,338.715,59.712,345.61,90.147Z" transform="translate(-150.312 -18.011)" fill="#29a7df"/>
    <path id="Path_110" data-name="Path 110" d="M300.475,31l-.565.248V86.878h34.82l.29-.441C334.868,86.161,324.3,54.995,300.475,31Z" transform="translate(-150.242 -14.452)" fill="#29a7df"/>
    <path id="Path_111" data-name="Path 111" d="M238.019,217.69c-39.923-75.211-7.874-138.012-7.529-138.66l-.331-.51H204.964v.248c-35.055,81.872,8.757,138.384,9.157,139h.138l23.554.3Z" transform="translate(-191.379 3.559)" fill="#29a7df"/>
    <path id="Path_112" data-name="Path 112" d="M268.342,100.633c.345-4.454,4.689-21.044,4.689-21.14l-.235-.483H231.178v.179c-35.1,74.88,8.026,138.4,8.55,139.046l.124.11h37.785l.179-.593c-1.255-.731-2.386-3.82-2.592-4.978l-.1-.193s-4.551-.331-4.827-.372-44.4-77.376-44.763-78.038c.607-.221,14.245-6.633,14.245-6.633l.11-.428s-7.047-11.584-7.378-12.19c.7-.3,35.854-14.121,35.854-14.121Z" transform="translate(-181.502 3.745)" fill="#29a7df"/>
    <path id="Path_113" data-name="Path 113" d="M267.36,79.25h-.207L262.63,96.6l.5.3,40.736-17.017-.11-.634Z" transform="translate(-164.372 3.835)" fill="#29a7df"/>
    <path id="Path_114" data-name="Path 114" d="M258.179,102.2l-.414-.317-19,7.088-.193.483,3.613,6.33,15.914-5.6Z" transform="translate(-173.492 12.412)" fill="#29a7df"/>
    <path id="Path_115" data-name="Path 115" d="M253.784,114.28l-8.6,3.227-.179.524,2.606,5.24h6.219L254.1,123c-.249-3.034-.441-7.6,0-8.274Z" transform="translate(-171.053 17.112)" fill="#29a7df"/>
    <path id="Path_116" data-name="Path 116" d="M238.138,119.727l-4.758,3.02,18,30.021h8.688l.317-.4c-.483-1.379-1.269-16.2-1.531-21.816v-.3H245.4c-.207-.262-7.033-10.729-7.033-10.729Z" transform="translate(-175.46 19.098)" fill="#29a7df"/>
    <path id="Path_117" data-name="Path 117" d="M259.347,128l-.083.207c-.938,3.227.551,19.734.648,20.409v.289l44.6.345.331-.345V128H259.334Z" transform="translate(-165.763 22.312)" fill="#29a7df"/>
    <path id="Path_118" data-name="Path 118" d="M260.58,111.222l.5.262c1.972-1.779,28.711-11.239,42.611-16.024h.207V87.765l-.427-.345-42.1,15.169-.124.124v.193C260.869,104.451,260.58,110.974,260.58,111.222Z" transform="translate(-165.15 6.932)" fill="#29a7df"/>
    <path id="Path_119" data-name="Path 119" d="M259.464,116.171l-.193.014-.331,12.742.331.358,45.245.028.331-.372V99.4l-.5-.262Z" transform="translate(-165.77 11.374)" fill="#29a7df"/>
    <path id="Path_120" data-name="Path 120" d="M306.729,94.322l-.359-.372L299.985,96.2l-.275.11v35.344l.427.3,6.592-.055Z" transform="translate(-150.317 9.407)" fill="#29a7df"/>
    <path id="Path_121" data-name="Path 121" d="M347.506,167.384c6.9-51.644-7.392-87.429-7.6-87.719l-.083-.165H299.71V93.662l.5.262,18.244-7.805V146.8H300.414v20.685l.3.317h46.79Z" transform="translate(-150.317 3.93)" fill="#29a7df"/>
    <path id="Path_122" data-name="Path 122" d="M389.332,113.562c-1.917-17.927-11.032-33.744-11.128-33.9l-.083-.165H336.557l-.317.4c14.286,52.1,7.626,82.272,7.584,82.534l.635.193s15.28-48.266,15.4-48.679h29.111Z" transform="translate(-136.474 3.93)" fill="#29a7df"/>
    <path id="Path_123" data-name="Path 123" d="M372.534,199.239l.111-.165c22.878-37.964,20.23-68.951,20.23-69.406v-.248H363.24l-21.21,65.517c-.524.689-4.771-.207-7.64-1.145h-.221l-2.33,5.033.248.482Z" transform="translate(-138.141 22.851)" fill="#29a7df"/>
    <path id="Path_124" data-name="Path 124" d="M267.308,174.985l-.138.138v.152a63.449,63.449,0,0,0,3.42,8.412l.124.152,30.669.1.331-.289v-5.323l-.179-.11C283.249,159.581,267.473,174.833,267.308,174.985Z" transform="translate(-162.652 37.838)" fill="#29a7df"/>
    <path id="Path_125" data-name="Path 125" d="M318.757,169.271c-6.371-.124-12.521,2.869-18.437,8.826v5.433l.262.289,32.862-.1.083-.179c0-.165,1.31-5.019,1.586-6.895v-.138l-.1-.138S328.286,169.4,318.757,169.271Z" transform="translate(-150.088 37.953)" fill="#29a7df"/>
    <path id="Path_126" data-name="Path 126" d="M235.229,187.984l-.138-.234H211.11l-.22.51c34.158,49.4,93.869,57.312,94.338,57.422l.234-.607C255.846,223.784,235.437,188.26,235.229,187.984Z" transform="translate(-183.984 44.958)" fill="#29a7df"/>
    <path id="Path_127" data-name="Path 127" d="M275.54,188.173l-.138-.193H237.466l-.276.538c31.373,41.784,75,52.747,75.487,52.871l.234-.552C284.89,212.83,275.54,188.407,275.54,188.173Z" transform="translate(-174.015 45.046)" fill="#29a7df"/>
    <path id="Path_128" data-name="Path 128" d="M272.308,188l-.248.428c9.391,21.706,27.056,39.826,27.277,39.991l.538-.207V188H272.294Z" transform="translate(-160.799 45.053)" fill="#29a7df"/>
    <path id="Path_129" data-name="Path 129" d="M385.037,187.75h-.152l-.11.11c-.166.4-22.436,35.854-71.984,57.215l.179.607c.538-.11,60.249-8.026,94.435-57.422l-.3-.51Z" transform="translate(-145.361 44.958)" fill="#29a7df"/>
    <path id="Path_130" data-name="Path 130" d="M376.577,188.518l-.3-.538h-37.55v.193c-.179.234-9.832,24.036-38.613,52.664l.248.552C300.855,241.265,345.273,230.3,376.577,188.518Z" transform="translate(-150.167 45.046)" fill="#29a7df"/>
    <path id="Path_131" data-name="Path 131" d="M329.291,188.4l-.331-.4H300v40.24l.566.207C300.786,228.226,319.913,210.064,329.291,188.4Z" transform="translate(-150.207 45.053)" fill="#29a7df"/>
    <path id="Path_132" data-name="Path 132" d="M405.479,79.868l-.1-.138H381.195l-.289.441a125.668,125.668,0,0,1,9.128,33.4v.29h12.784c-.138.717-2.758,9.529-2.924,9.943H364.453v3.889h34.379c-.179.662-1.379,6.564-1.462,7.088H361.93v4.468h33.1c-8.453,60.911-21.927,77.5-22.065,77.707l.207.524h23.636l.11-.152C440.175,143,405.811,80.475,405.479,79.868Z" transform="translate(-126.735 4.017)" fill="#29a7df"/>
  </g>
</svg>
